# xmcd CD database file
#
# Track frame offsets:
#	150
#	32559
#	64022
#	92789
#	119081
#	141646
#	173826
#	218146
#	254363
#	286627
#	329625
#
# Disc length: 4758 seconds
#
# Revision: 0
# Processed by: cddbd v1.5.2PL0 Copyright (c) Steve Scherf et al.
# Submitted via: CDex 1.51
#
DISCID=ab12940b
DTITLE=paul fox collective - submerging and emerging
DYEAR=2011
DGENRE=Jazz
TTITLE0=inner sight
TTITLE1=beautifl stranger
TTITLE2=crowded places
TTITLE3=i'm sorry
TTITLE4=my favourite memories
TTITLE5=leaving it behind
TTITLE6=remember me ?
TTITLE7=wandering in the dark
TTITLE8=interlude
TTITLE9=submerging and emerging
TTITLE10=tales within
EXTD=YEAR: 2011
EXTT0=
EXTT1=
EXTT2=
EXTT3=
EXTT4=
EXTT5=
EXTT6=
EXTT7=
EXTT8=
EXTT9=
EXTT10=
PLAYORDER=
